# xmcd
#
# Track frame offsets:
# 150
# 26871
# 46911
# 69042
# 85736
# 102479
# 116506
# 128941
# 150658
# 169039
# 187904
# 215842
# 237673
# 252574
# 268161
# 279906
# 295524
# 314512
# 327877
#
# Disc length: 4566 seconds
#
# Revision: 0
# Processed by: cddbd v1.4PL0 Copyright (c) Steve Scherf et al.
# Submitted via: Audion 3.0.2 (http://www.panic.com/audion/)
#
DISCID=1611d413
DTITLE=Mix2 - dfdfs
DYEAR=1900
DGENRE=
TTITLE0=lkjlkjh
TTITLE1=;lk;lkhj
TTITLE2=;lkj;ljk
TTITLE3=;lkj;lkj
TTITLE4=;lkjlkj;
TTITLE5=;lkj;lkj
TTITLE6=jhkh
TTITLE7=igoiu
TTITLE8=gl
TTITLE9=goiuy
TTITLE10=ouitoiu
TTITLE11=oiuy
TTITLE12=oiuoiu
TTITLE13=oiuyoiu
TTITLE14=oiuoiuy
TTITLE15=oiuiyu
TTITLE16=oiuoiuy
TTITLE17=oiuyoyiu
TTITLE18=oiuy
EXTD=
EXTT0=
EXTT1=
EXTT2=
EXTT3=
EXTT4=
EXTT5=
EXTT6=
EXTT7=
EXTT8=
EXTT9=
EXTT10=
EXTT11=
EXTT12=
EXTT13=
EXTT14=
EXTT15=
EXTT16=
EXTT17=
EXTT18=
PLAYORDER=
